<?xml version="1.0" standalone="no"?>
<!DOCTYPE svg PUBLIC "-//W3C//DTD SVG 20010904//EN"
 "http://www.w3.org/TR/2001/REC-SVG-20010904/DTD/svg10.dtd">
<svg version="1.0" xmlns="http://www.w3.org/2000/svg"
 width="512.000000pt" height="512.000000pt" viewBox="0 0 512.000000 512.000000"
 preserveAspectRatio="xMidYMid meet">

<g transform="translate(0.000000,512.000000) scale(0.100000,-0.100000)"
fill="#000000" stroke="none">
<path d="M207 4356 c-58 -21 -114 -62 -147 -108 -63 -87 -61 -20 -58 -1404 l3
-1259 27 -51 c32 -60 93 -118 157 -148 46 -21 51 -21 923 -24 l878 -3 231
-277 c127 -152 244 -289 260 -304 31 -29 83 -37 118 -18 10 5 123 142 251 304
l233 295 901 3 c896 3 901 3 947 24 64 30 125 88 157 148 l27 51 0 1280 0
1280 -28 57 c-30 61 -74 105 -140 140 l-42 23 -1708 3 -1708 2 -30 -29 c-38
-39 -40 -97 -5 -138 l24 -28 1691 -5 1691 -5 27 -28 28 -27 0 -1241 0 -1241
-33 -29 -32 -29 -909 0 c-601 0 -918 -4 -938 -10 -22 -8 -86 -83 -243 -282
-171 -216 -216 -268 -224 -256 -6 8 -107 130 -225 271 -153 184 -222 259 -244
266 -20 8 -316 11 -913 11 l-884 0 -32 29 -33 29 0 1242 0 1242 33 29 32 29
221 0 c243 0 266 5 289 59 17 42 5 95 -27 121 -24 19 -39 20 -267 20 -176 -1
-251 -5 -279 -14z"/>
<path d="M1057 4359 c-21 -12 -47 -61 -47 -89 0 -33 26 -75 55 -88 35 -16 62
-15 95 5 86 51 52 183 -47 183 -21 0 -46 -5 -56 -11z"/>
<path d="M1140 3508 c-19 -11 -129 -168 -198 -286 -5 -6 -80 -30 -167 -53
-138 -34 -164 -44 -187 -70 -19 -20 -28 -40 -28 -63 0 -38 22 -70 146 -217
l73 -87 -9 -128 c-5 -71 -10 -154 -10 -185 0 -119 68 -128 275 -39 66 28 134
51 150 51 17 1 60 -13 97 -29 183 -83 270 -100 309 -61 21 21 22 27 15 183 -4
89 -9 170 -12 182 -4 15 23 54 105 154 117 141 127 163 100 224 -16 34 -49 48
-219 91 l-145 37 -83 133 c-46 73 -91 140 -101 149 -25 23 -81 30 -111 14z
m89 -357 c59 -100 88 -122 204 -150 l98 -23 -25 -32 c-14 -17 -47 -58 -72 -91
l-47 -60 7 -112 6 -113 -52 21 c-29 12 -78 30 -109 41 l-57 19 -93 -36 c-52
-20 -99 -39 -105 -41 -8 -4 -10 29 -7 113 l5 118 -58 70 c-31 39 -63 77 -71
86 -13 15 -5 19 84 40 116 28 144 49 204 150 23 38 43 69 45 69 2 0 21 -31 43
-69z"/>
<path d="M2502 3508 c-12 -6 -63 -76 -113 -154 -82 -130 -94 -145 -127 -153
-21 -6 -90 -23 -155 -39 -129 -33 -163 -50 -178 -90 -18 -47 -2 -80 106 -210
l106 -127 -8 -135 c-13 -221 -12 -239 17 -262 37 -30 106 -19 249 41 66 28
135 51 151 51 17 0 78 -21 136 -46 123 -53 201 -72 241 -58 48 17 54 45 43
201 -16 220 -22 194 81 318 138 166 146 182 110 241 -22 36 -42 45 -181 79
-58 14 -121 30 -142 36 -33 8 -45 23 -127 153 -91 142 -115 167 -164 165 -12
0 -32 -5 -45 -11z m82 -341 c67 -119 83 -131 216 -167 47 -12 87 -24 89 -26 2
-2 -27 -40 -65 -86 l-69 -82 3 -117 3 -117 -83 36 c-108 47 -148 47 -257 -1
l-84 -36 6 108 c7 123 6 125 -91 239 -25 29 -43 54 -41 56 2 2 42 14 89 26
133 36 149 48 216 167 16 29 31 53 34 53 3 0 18 -24 34 -53z"/>
<path d="M3873 3510 c-26 -10 -53 -48 -143 -193 l-65 -105 -160 -42 c-88 -23
-167 -47 -176 -53 -24 -18 -39 -52 -39 -90 0 -28 18 -55 110 -167 61 -73 109
-139 106 -145 -2 -7 -8 -89 -11 -182 -7 -165 -7 -171 14 -192 39 -39 111 -26
292 54 46 20 95 37 109 37 14 1 81 -23 150 -52 101 -43 136 -53 184 -54 52 -1
60 2 79 26 20 26 20 32 9 203 l-11 176 92 112 c51 62 101 123 110 137 24 35
21 83 -7 117 -22 26 -47 35 -188 72 l-164 42 -88 140 c-103 163 -134 187 -203
159z m86 -359 c60 -101 88 -122 204 -150 89 -21 97 -25 84 -40 -8 -9 -40 -47
-71 -86 l-58 -70 5 -118 c4 -106 2 -117 -12 -111 -9 3 -57 22 -106 41 l-91 35
-94 -37 c-52 -20 -101 -39 -108 -42 -10 -4 -11 17 -6 104 4 70 3 116 -4 129
-5 10 -37 52 -71 93 -33 41 -59 76 -58 77 1 1 46 14 101 27 114 29 137 47 197
150 22 37 41 67 43 67 2 0 22 -31 45 -69z"/>
</g>
</svg>
